<?xml version="1.0" encoding="UTF-8"?>
<svg id="Layer_1" xmlns="http://www.w3.org/2000/svg" version="1.1" viewBox="0 0 4733.55 1146.48">
  <!-- Generator: Adobe Illustrator 29.1.0, SVG Export Plug-In . SVG Version: 2.1.0 Build 142)  -->
  <g>
    <path d="M766.65,473.82c-32.7,187.47-191.83,295.72-382.58,295.72C172.62,769.53,1.49,596.23,1.49,383.69S173.71.02,386.25.02C562.83.02,715.09,107.67,759.78,279.88h-67.25c-5.45-125.35-98.1-199.21-222.35-199.21-196.19,0-391.3,192.92-391.3,390.21,0,130.8,93.74,221.26,225.62,221.26,144.97,0,291.62-82.97,353.75-218.12l108.39-.2Z"/>
    <path d="M1044.52.02l113.36,725.91,44.69,37.06h-213.63l45.78-37.06-19.62-127.53h-118.81l-19.62,127.53,41.42,37.06h-131.89l41.42-37.06L933.35,37.08,922.45.02h122.08ZM903.92,548.27h103.55l-53.41-342.25-50.14,342.25Z"/>
    <path d="M1401.66,712.85h71.94l49.05-109v159.13h-286.66l43.6-37.06V37.08L1235.99.02h213.63l-47.96,37.06v675.78Z"/>
    <path d="M2318.61,473.94c-32.7,187.47-191.83,295.59-382.58,295.59-211.45,0-382.58-173.3-382.58-385.85S1725.67.02,1938.22.02c176.57,0,328.08,107.57,372.77,279.78h-66.49c-5.45-125.35-98.1-199.13-222.35-199.13-196.19,0-391.3,192.92-391.3,390.21,0,130.8,93.74,221.26,225.62,221.26,144.97,0,291.02-83.05,353.15-218.2h109Z"/>
    <path d="M2546.34,762.99h-211.45l44.69-37.06V37.08L2334.89.02h211.45l-44.69,37.06v688.86l44.69,37.06Z"/>
    <path d="M2562.55,385.87C2562.55,173.32,2735.85.02,2948.39.02s384.76,174.39,384.76,382.58-171.12,386.94-384.76,386.94-385.85-172.21-385.85-383.67ZM3254.67,301.94c0-131.89-91.56-224.53-223.44-224.53-194.01,0-389.12,194.01-389.12,390.21,0,132.98,91.56,223.44,223.44,223.44,195.1,0,389.12-191.83,389.12-389.12Z"/>
    <path d="M3516.18,712.85h71.94l49.05-109v159.13h-286.66l43.6-37.06V37.08L3350.5.02h213.63l-47.96,37.06v675.78Z"/>
    <path d="M3914.94.02l113.36,725.91,44.69,37.06h-213.63l45.78-37.06-19.62-127.53h-118.81l-19.62,127.53,41.42,37.06h-131.89l41.42-37.06,105.73-688.86L3792.87.02h122.08ZM3774.34,548.27h103.55l-53.41-342.25-50.14,342.25Z"/>
    <path d="M4473.93,589.69v176.57s-105.73,23.98-202.73-166.76v126.44l40.33,37.06h-202.73l40.33-37.06V34.9L4103.34.02h167.86c112.27,0,209.27,125.35,209.27,282.3,0,147.15-88.29,268.13-192.92,280.12,51.23,43.6,118.8,71.94,186.38,27.25ZM4271.2,530.83c47.96,0,86.11-111.17,86.11-248.51s-38.15-249.6-86.11-249.6v498.11Z"/>
    <path d="M4732.06,762.99h-211.45l44.69-37.06V37.08L4520.61.02h211.45l-44.69,37.06v688.86l44.69,37.06Z"/>
  </g>
  <g>
    <rect x="530.96" y="1076.15" width="256.79" height="11.91"/>
    <path d="M1046.09,1106.55l19.25,9.54c-11.44,17.69-33.64,30.34-64.33,30.34-45.43,0-74.04-24.45-74.04-64.33s28.61-64.33,74.91-64.33c29.82,0,52.02,12.83,63.29,30.17l-19.42,9.71c-9.02-14.91-24.45-21.5-44.21-21.5-32.08,0-53.41,15.61-53.41,45.95s21.33,45.95,53.41,45.95c19.77,0,35.37-6.42,44.56-21.5Z"/>
    <path d="M1293.54,1019.6v64.15c0,35.89-23.06,60.86-66.06,60.86s-65.89-24.97-65.89-60.86v-64.15h20.81v62.77c0,27.22,16.13,43.69,45.08,43.69s45.26-16.47,45.26-43.69v-62.77h20.81Z"/>
    <path d="M1507.33,1106.58l19.25,9.54c-11.44,17.69-33.64,30.34-64.33,30.34-45.43,0-74.04-24.45-74.04-64.33s28.61-64.33,74.91-64.33c29.82,0,52.02,12.83,63.29,30.17l-19.42,9.71c-9.02-14.91-24.45-21.5-44.21-21.5-32.08,0-53.4,15.61-53.4,45.95s21.33,45.95,53.4,45.95c19.77,0,35.37-6.42,44.56-21.5Z"/>
    <path d="M1622.83,1141.84v-121.37h20.81v121.37h-20.81Z"/>
    <path d="M1873.22,1021.42v121.37h-18.38l-94.84-95.71v95.71h-20.11v-121.37h22.19l90.86,92.07v-92.07h20.29Z"/>
    <path d="M2085.29,1113.49h-77.85l-15.43,29.3h-22.54l65.72-121.37h22.89l65.54,121.37h-22.71l-15.61-29.3ZM2076.1,1095.8l-29.65-56.18-29.65,56.18h59.3Z"/>
    <path d="M2255.58,1142.79v-121.37h20.81v121.37h-20.81Z"/>
    <path d="M2503.72,1039.62h-55.31v103.17h-20.81v-103.17h-54.96v-18.21h131.08v18.21Z"/>
    <path d="M2715.79,1113.49h-77.85l-15.43,29.3h-22.54l65.72-121.37h22.89l65.54,121.37h-22.71l-15.61-29.3ZM2706.6,1095.8l-29.65-56.18-29.65,56.18h59.3Z"/>
    <path d="M2960.63,1124.41v18.38h-110.28v-121.37h20.81v102.99h89.47Z"/>
    <path d="M3056.88,1142.79v-121.37h20.81v121.37h-20.81Z"/>
    <path d="M3289.67,1113.49h-77.85l-15.43,29.3h-22.54l65.72-121.37h22.89l65.54,121.37h-22.71l-15.61-29.3ZM3280.48,1095.8l-29.65-56.18-29.65,56.18h59.3Z"/>
    <path d="M3557.58,1021.42v121.37h-18.38l-94.84-95.71v95.71h-20.11v-121.37h22.19l90.86,92.07v-92.07h20.29Z"/>
    <path d="M3769.65,1113.49h-77.85l-15.43,29.3h-22.54l65.72-121.37h22.89l65.54,121.37h-22.71l-15.61-29.3ZM3760.46,1095.8l-29.65-56.18-29.65,56.18h59.3Z"/>
    <rect x="3945.8" y="1076.15" width="256.79" height="11.91"/>
  </g>
</svg>